<svg width="12" height="12" viewBox="0 0 12 12" fill="none" xmlns="http://www.w3.org/2000/svg">
<path d="M1.91667 10.0833H2.73333L7.76458 5.05208L6.94792 4.23542L1.91667 9.26667V10.0833ZM10.2583 4.20625L7.77917 1.75625L8.59583 0.939583C8.81944 0.715972 9.09419 0.604166 9.42008 0.604166C9.74597 0.604166 10.0205 0.715972 10.2437 0.939583L11.0604 1.75625C11.284 1.97986 11.4007 2.24975 11.4104 2.56592C11.4201 2.88208 11.3132 3.15178 11.0896 3.375L10.2583 4.20625ZM9.4125 5.06667L3.22917 11.25H0.75V8.77083L6.93333 2.5875L9.4125 5.06667ZM7.35625 4.64375L6.94792 4.23542L7.76458 5.05208L7.35625 4.64375Z" fill="#3C377E"/>
</svg>
