<svg width="26" height="26" viewBox="0 0 26 26" fill="none" xmlns="http://www.w3.org/2000/svg">
<mask id="mask0_8_172" style="mask-type:alpha" maskUnits="userSpaceOnUse" x="0" y="0" width="26" height="26">
<rect x="0.862915" y="0.666656" width="24.3148" height="24.4444" fill="#D9D9D9"/>
</mask>
<g mask="url(#mask0_8_172)">
<path d="M5.92845 20.0185H7.34681L16.0849 11.2338L14.6666 9.80787L5.92845 18.5926V20.0185ZM20.416 9.75694L16.1103 5.47916L17.5286 4.05324C17.917 3.66281 18.394 3.46759 18.9596 3.46759C19.5253 3.46759 20.0023 3.66281 20.3907 4.05324L21.809 5.47916C22.1974 5.8696 22.4 6.34066 22.4169 6.89236C22.4338 7.44406 22.248 7.91512 21.8597 8.30555L20.416 9.75694ZM18.947 11.2593L8.20796 22.0556H3.90222V17.7268L14.6412 6.93055L18.947 11.2593Z" fill="white"/>
</g>
</svg>
