<svg width="28" height="20" viewBox="0 0 28 20" fill="none" xmlns="http://www.w3.org/2000/svg">
<path d="M27 10C27 13 21.18 19 14 19C6.82 19 1 13 1 10C1 7 6.82 1 14 1C21.18 1 27 7 27 10Z" stroke="black" stroke-opacity="0.81" stroke-width="2" stroke-linejoin="round"/>
<path d="M19 10C19 11.3261 18.4732 12.5979 17.5355 13.5355C16.5979 14.4732 15.3261 15 14 15C12.6739 15 11.4021 14.4732 10.4645 13.5355C9.52678 12.5979 9 11.3261 9 10C9 8.67392 9.52678 7.40215 10.4645 6.46447C11.4021 5.52678 12.6739 5 14 5C15.3261 5 16.5979 5.52678 17.5355 6.46447C18.4732 7.40215 19 8.67392 19 10Z" stroke="black" stroke-opacity="0.81" stroke-width="2" stroke-linejoin="round"/>
</svg>
