<svg width="21" height="18" viewBox="0 0 21 18" fill="none" xmlns="http://www.w3.org/2000/svg">
<path d="M1.21156 0.290309H19.857C20.4873 0.294241 21 0.889978 21 1.61744V15.7696C21 16.4991 20.4822 17.0968 19.8502 17.0968H1.21156C0.583001 17.0928 0.068573 16.4971 0.068573 15.7696V1.61744C0.068573 0.889978 0.581298 0.294241 1.21156 0.290309Z" fill="#FF9933"/>
<path d="M0.068573 5.89183H21V11.4953H0.068573V5.89183Z" fill="white"/>
<path d="M0.068573 11.4953H21V15.7697C21 16.4991 20.4822 17.0968 19.8502 17.0968H1.21156C0.583001 17.0929 0.068573 16.4971 0.068573 15.7697V11.4953Z" fill="#128807"/>
<path d="M12.4762 8.69356C12.4762 7.4549 11.6074 6.45218 10.5343 6.45218C9.46113 6.45218 8.59239 7.4549 8.59239 8.69356C8.59239 9.93026 9.46113 10.9349 10.5343 10.9349C11.6074 10.9349 12.4762 9.93222 12.4762 8.69356Z" fill="#000088"/>
<path d="M12.2326 8.69351C12.2326 7.61017 11.4729 6.73328 10.5343 6.73328C9.5957 6.73328 8.83598 7.61017 8.83598 8.69351C8.83598 9.77684 9.5957 10.6537 10.5343 10.6537C11.4729 10.6537 12.2326 9.77684 12.2326 8.69351Z" fill="white"/>
<path d="M10.8733 8.69354C10.8733 8.47726 10.7217 8.30031 10.5343 8.30031C10.3469 8.30031 10.1953 8.4753 10.1953 8.69354C10.1953 8.90981 10.3469 9.08479 10.5343 9.08479C10.7217 9.08479 10.8733 8.90981 10.8733 8.69354Z" fill="#000088"/>
<path d="M12.3024 8.96291C12.3092 8.90983 12.2752 8.86067 12.2292 8.85281C12.1832 8.84495 12.1406 8.88427 12.1338 8.93735C12.127 8.99044 12.161 9.03959 12.207 9.04746C12.2547 9.05336 12.2973 9.016 12.3024 8.96291Z" fill="#000088"/>
<path d="M10.5343 10.6538L10.5922 9.47805L10.5343 8.9177L10.4763 9.47805L10.5343 10.6538Z" fill="#000088"/>
<path d="M12.1815 9.48197C12.2002 9.43282 12.1781 9.37384 12.1355 9.35417C12.0929 9.33255 12.0418 9.35811 12.0248 9.40726C12.006 9.45641 12.0282 9.5154 12.0708 9.53506C12.1151 9.55472 12.1645 9.53113 12.1815 9.48197Z" fill="black"/>
<path d="M10.0948 10.5869L10.415 9.46816L10.4849 8.90978L10.3026 9.43474L10.0948 10.5869Z" fill="black"/>
<path d="M11.9498 9.9479C11.9788 9.90464 11.972 9.84369 11.9345 9.81027C11.897 9.77684 11.8442 9.78471 11.8152 9.82796C11.7863 9.87122 11.7931 9.93217 11.8306 9.96559C11.868 9.99902 11.9208 9.98919 11.9498 9.9479Z" fill="black"/>
<path d="M9.68427 10.3923L10.2447 9.40727L10.4372 8.88821L10.1442 9.33845L9.68427 10.3923Z" fill="black"/>
<path d="M11.6194 10.3274C11.6569 10.294 11.6637 10.233 11.6347 10.1898C11.6058 10.1465 11.5529 10.1387 11.5155 10.1721C11.478 10.2055 11.4712 10.2665 11.5001 10.3097C11.5291 10.351 11.5836 10.3608 11.6194 10.3274Z" fill="black"/>
<path d="M9.33337 10.0797L10.0948 9.2952L10.3963 8.85282L10.013 9.20082L9.33337 10.0797Z" fill="black"/>
<path d="M11.2173 10.5968C11.2599 10.5751 11.2821 10.5181 11.2633 10.469C11.2446 10.4198 11.1952 10.3943 11.1526 10.4159C11.11 10.4355 11.0879 10.4945 11.1066 10.5437C11.1236 10.5928 11.173 10.6164 11.2173 10.5968Z" fill="black"/>
<path d="M9.06256 9.67466L9.97559 9.1438L10.3657 8.80563L9.91597 9.0278L9.06256 9.67466Z" fill="black"/>
<path d="M10.7676 10.7343C10.8136 10.7265 10.846 10.6773 10.8409 10.6242C10.8341 10.5712 10.7915 10.5338 10.7455 10.5397C10.6995 10.5476 10.6671 10.5967 10.6722 10.6498C10.6773 10.7048 10.7199 10.7422 10.7676 10.7343Z" fill="black"/>
<path d="M8.89391 9.20082L9.8938 8.96096L10.3469 8.75255L9.86314 8.83119L8.89391 9.20082Z" fill="black"/>
<path d="M10.3009 10.7344C10.3469 10.7423 10.3895 10.7029 10.3963 10.6498C10.4031 10.5968 10.3691 10.5476 10.3231 10.5397C10.2771 10.5319 10.2345 10.5712 10.2277 10.6243C10.2226 10.6793 10.2549 10.7285 10.3009 10.7344Z" fill="black"/>
<path d="M8.83598 8.69351L9.85462 8.76035L10.3401 8.69351L9.85462 8.62666L8.83598 8.69351Z" fill="black"/>
<path d="M9.85122 10.5968C9.8938 10.6184 9.94491 10.5928 9.96194 10.5437C9.97897 10.4945 9.95853 10.4355 9.91595 10.4159C9.87336 10.3943 9.82226 10.4198 9.80523 10.469C9.78819 10.5181 9.80863 10.5751 9.85122 10.5968Z" fill="black"/>
<path d="M8.89391 8.1863L9.86314 8.55593L10.3469 8.63655L9.8938 8.42617L8.89391 8.1863Z" fill="black"/>
<path d="M9.44749 10.3274C9.48497 10.3608 9.53777 10.353 9.56673 10.3097C9.59569 10.2665 9.58887 10.2055 9.5514 10.1721C9.51392 10.1387 9.46112 10.1465 9.43216 10.1898C9.40491 10.233 9.41172 10.294 9.44749 10.3274Z" fill="black"/>
<path d="M9.06256 7.71241L9.91597 8.35927L10.3657 8.58144L9.97559 8.24326L9.06256 7.71241Z" fill="black"/>
<path d="M9.11877 9.9479C9.14773 9.99115 9.20054 9.99902 9.23801 9.96559C9.27549 9.93217 9.2823 9.87122 9.25334 9.82796C9.22438 9.78471 9.17158 9.77684 9.1341 9.81027C9.09833 9.84173 9.08982 9.90464 9.11877 9.9479Z" fill="black"/>
<path d="M9.33337 7.30744L10.013 8.1863L10.3963 8.53627L10.0948 8.09193L9.33337 7.30744Z" fill="black"/>
<path d="M8.88536 9.48197C8.9041 9.53113 8.9535 9.55669 8.99609 9.53506C9.03867 9.51343 9.06082 9.45641 9.04208 9.40726C9.02334 9.35811 8.97394 9.33255 8.93136 9.35417C8.88877 9.37384 8.86833 9.43085 8.88536 9.48197Z" fill="black"/>
<path d="M9.68427 6.99483L10.1442 8.04868L10.4372 8.49892L10.2447 7.98183L9.68427 6.99483Z" fill="black"/>
<path d="M8.76615 8.96286C8.77296 9.01595 8.81555 9.0533 8.86154 9.0474C8.90753 9.03954 8.9399 8.99039 8.93479 8.9373C8.92797 8.88421 8.88539 8.84686 8.8394 8.85276C8.7917 8.85865 8.75933 8.90781 8.76615 8.96286Z" fill="black"/>
<path d="M10.0948 6.80018L10.3026 7.9543L10.4849 8.47729L10.415 7.91891L10.0948 6.80018Z" fill="black"/>
<path d="M8.76616 8.42414C8.75934 8.47723 8.79341 8.52638 8.8394 8.53424C8.8854 8.54211 8.92798 8.50279 8.9348 8.4497C8.94161 8.39662 8.90754 8.34746 8.86155 8.3396C8.81385 8.3337 8.77127 8.37106 8.76616 8.42414Z" fill="black"/>
<path d="M10.5343 6.73328L10.4763 7.90902L10.5343 8.46937L10.5922 7.90902L10.5343 6.73328Z" fill="black"/>
<path d="M8.88708 7.90514C8.86834 7.95429 8.89049 8.01327 8.93307 8.03293C8.97566 8.0526 9.02676 8.029 9.04379 7.97985C9.06253 7.9307 9.04039 7.87171 8.9978 7.85205C8.95351 7.83239 8.90412 7.85598 8.88708 7.90514Z" fill="black"/>
<path d="M10.9738 6.80018L10.6535 7.91891L10.5837 8.47729L10.7659 7.9543L10.9738 6.80018Z" fill="black"/>
<path d="M9.11872 7.44114C9.08976 7.4844 9.09658 7.54535 9.13405 7.57877C9.17153 7.6122 9.22433 7.60433 9.25329 7.56108C9.28225 7.51782 9.27543 7.45687 9.23796 7.42345C9.20048 7.39002 9.14768 7.39789 9.11872 7.44114Z" fill="black"/>
<path d="M11.3843 6.99483L10.8239 7.98183L10.6314 8.49892L10.9244 8.04868L11.3843 6.99483Z" fill="black"/>
<path d="M9.44922 7.05969C9.41175 7.09312 9.40493 7.15407 9.43389 7.19732C9.46285 7.24058 9.51565 7.24844 9.55313 7.21502C9.5906 7.18159 9.59742 7.12064 9.56846 7.07739C9.5395 7.03413 9.48499 7.02824 9.44922 7.05969Z" fill="black"/>
<path d="M11.7352 7.30744L10.9738 8.09193L10.6723 8.53627L11.0555 8.1863L11.7352 7.30744Z" fill="black"/>
<path d="M9.85122 6.79228C9.80863 6.8139 9.78819 6.87092 9.80523 6.92007C9.82396 6.96923 9.87336 6.99479 9.91595 6.97316C9.95853 6.95153 9.98068 6.89451 9.96194 6.84536C9.94491 6.79424 9.89551 6.77065 9.85122 6.79228Z" fill="black"/>
<path d="M12.006 7.71241L11.093 8.24326L10.7029 8.58144L11.1526 8.35927L12.006 7.71241Z" fill="black"/>
<path d="M10.3009 6.65271C10.2549 6.66058 10.2226 6.70973 10.2277 6.76282C10.2345 6.8159 10.2771 6.85326 10.3231 6.84736C10.3691 6.8395 10.4031 6.79034 10.3963 6.73726C10.3912 6.68417 10.3486 6.64485 10.3009 6.65271Z" fill="black"/>
<path d="M12.1747 8.1863L11.1748 8.42617L10.7217 8.63655L11.2054 8.55593L12.1747 8.1863Z" fill="black"/>
<path d="M10.7676 6.65271C10.7217 6.64485 10.6791 6.68417 10.6723 6.73726C10.6654 6.79034 10.6995 6.8395 10.7455 6.84736C10.7915 6.85522 10.8341 6.8159 10.8409 6.76282C10.846 6.70973 10.8136 6.65861 10.7676 6.65271Z" fill="black"/>
<path d="M12.2326 8.69351L11.2139 8.62666L10.7285 8.69351L11.2139 8.76035L12.2326 8.69351Z" fill="black"/>
<path d="M11.2173 6.79226C11.1747 6.77063 11.1236 6.79619 11.1066 6.84534C11.0879 6.89449 11.11 6.95348 11.1526 6.97314C11.1952 6.9928 11.2463 6.96921 11.2633 6.92005C11.2804 6.86893 11.2599 6.81192 11.2173 6.79226Z" fill="black"/>
<path d="M12.1747 9.20082L11.2054 8.83119L10.7217 8.75255L11.1748 8.96096L12.1747 9.20082Z" fill="black"/>
<path d="M11.6194 7.05968C11.5819 7.02626 11.5291 7.03413 11.5001 7.07738C11.4712 7.12063 11.478 7.18158 11.5155 7.21501C11.5529 7.24843 11.6058 7.24057 11.6347 7.19731C11.6637 7.15406 11.6569 7.09311 11.6194 7.05968Z" fill="black"/>
<path d="M12.006 9.67466L11.1526 9.0278L10.7029 8.80563L11.093 9.1438L12.006 9.67466Z" fill="black"/>
<path d="M11.9498 7.44114C11.9208 7.39789 11.868 7.39002 11.8306 7.42345C11.7931 7.45687 11.7863 7.51782 11.8152 7.56108C11.8442 7.60433 11.897 7.6122 11.9345 7.57877C11.9702 7.54535 11.9788 7.48243 11.9498 7.44114Z" fill="black"/>
<path d="M11.7352 10.0797L11.0555 9.20082L10.6723 8.85282L10.9738 9.2952L11.7352 10.0797Z" fill="black"/>
<path d="M12.1832 7.90511C12.1644 7.85596 12.115 7.8304 12.0725 7.85203C12.0299 7.87365 12.0077 7.93067 12.0265 7.97982C12.0452 8.02898 12.0946 8.05257 12.1372 8.03291C12.1798 8.01325 12.2002 7.95623 12.1832 7.90511Z" fill="black"/>
<path d="M11.3843 10.3923L10.9244 9.33845L10.6314 8.88821L10.8239 9.40727L11.3843 10.3923Z" fill="black"/>
<path d="M12.3024 8.42414C12.2956 8.37106 12.253 8.3337 12.207 8.3396C12.1611 8.34746 12.1287 8.39662 12.1338 8.4497C12.1406 8.50279 12.1832 8.54014 12.2292 8.53424C12.2769 8.52835 12.3093 8.47919 12.3024 8.42414Z" fill="black"/>
<path d="M10.9738 10.5869L10.7659 9.43474L10.5837 8.90978L10.6535 9.46816L10.9738 10.5869Z" fill="black"/>
</svg>
